<svg width="110" height="28" fill="none" xmlns="http://www.w3.org/2000/svg">
  <path fill-rule="evenodd" clip-rule="evenodd" d="M19.65 5.9 6.67 28 0 24.02l12.98-22.1 6.67 3.98Z" fill="#FF8A12" />
  <mask id="a" style="mask-type: alpha" maskUnits="userSpaceOnUse" x="0" y="1" width="20" height="27">
    <path fill-rule="evenodd" clip-rule="evenodd" d="M19.65 5.9 6.67 28 0 24.02l12.98-22.1 6.67 3.98Z" fill="#FA811F" />
  </mask>
  <g mask="url(#a)">
    <path opacity=".8" d="m14.11 18.85-5.18-5.02v11.15l5.18-6.13Z" fill="#D05408" />
  </g>
  <path
    fill-rule="evenodd"
    clip-rule="evenodd"
    d="M17.11 10.23a3.93 3.93 0 0 0 1.36 5.35L28 21.27 24.05 28l-9.53-5.7a11.78 11.78 0 0 1-4.08-16.06L14.11 0l6.67 3.98-3.67 6.25Z"
    fill="#FFA82B"
  />
  <path d="M36.96 22h3.46V8.97h4.98V6H32v2.97h4.96V22Z" fill="#000" />
  <path
    d="m49.3 10.11-.4-.02c-2.08 0-3.02.95-3.47 1.65V10.2h-3.06V22h3.32v-5.87c0-2.16 1-3.09 2.95-3.09.3 0 .66.07.66.07v-3ZM58.4 10.2v1.45c-.77-1.08-2.15-1.72-3.89-1.72-3.55 0-5.64 2.75-5.64 6.18 0 3.42 2.09 6.17 5.64 6.17 1.74 0 3.12-.64 3.9-1.72v1.45h3.06V10.2H58.4Zm-.16 5.9c0 1.92-1.17 3.36-3.02 3.36s-3.02-1.44-3.02-3.36c0-1.9 1.17-3.35 3.02-3.35s3.02 1.44 3.02 3.36ZM65.83 20.74c.63.81 1.9 1.54 3.62 1.54 3.56 0 5.65-2.75 5.65-6.18 0-3.42-2.09-6.17-5.65-6.17-1.73 0-3.11.64-3.88 1.72V10.2H62.5V26h3.33v-5.26Zm-.1-4.63c0-1.92 1.17-3.36 3.02-3.36s3.02 1.44 3.02 3.36c0 1.9-1.17 3.35-3.02 3.35s-3.02-1.44-3.02-3.36ZM87.62 17.03s.05-.43.05-.95c0-3.49-2.46-6.15-6.1-6.15a5.96 5.96 0 0 0-6.15 6.15c0 3.63 2.55 6.2 6.18 6.2 2.83 0 5.08-1.65 5.8-4.04h-3.34c-.4.86-1.36 1.29-2.36 1.29-1.67 0-2.74-.88-2.98-2.5h8.9Zm-6.07-4.53c1.55 0 2.56.9 2.8 2.23h-5.58a2.66 2.66 0 0 1 2.78-2.23Z"
    fill="#000"
  />
  <path d="M97.81 12.84V10.2H87.58v2.77h6.04l-6.13 6.4v2.64H97.9v-2.77h-6.25l6.15-6.4Z" fill="#000" />
  <path
    d="M109.95 17.03s.05-.43.05-.95c0-3.49-2.46-6.15-6.09-6.15a5.96 5.96 0 0 0-6.16 6.15c0 3.63 2.56 6.2 6.19 6.2 2.83 0 5.08-1.65 5.8-4.04h-3.35c-.4.86-1.35 1.29-2.36 1.29-1.66 0-2.74-.88-2.97-2.5h8.9Zm-6.06-4.53c1.54 0 2.55.9 2.78 2.23h-5.57a2.66 2.66 0 0 1 2.79-2.23Z"
    fill="#000"
  />
</svg>
