<svg width="80" height="21" fill="none" xmlns="http://www.w3.org/2000/svg">
  <path
    opacity=".7"
    fill-rule="evenodd"
    clip-rule="evenodd"
    d="M14.3 4.32 4.84 20.51 0 17.59 9.44 1.41l4.85 2.91Z"
    fill="#000"
  />
  <mask id="a" style="mask-type: alpha" maskUnits="userSpaceOnUse" x="4" y="1" width="11" height="18">
    <path fill-rule="evenodd" clip-rule="evenodd" d="M14.3 4.32 6.01 18.5l-1.3-9 4.72-8.1 4.85 2.92Z" fill="#000" />
  </mask>
  <g mask="url(#a)">
    <path opacity=".4" d="m10.27 13.8-3.78-3.67v8.16l3.78-4.49Z" fill="#000" />
  </g>
  <path
    fill-rule="evenodd"
    clip-rule="evenodd"
    d="M12.44 7.5a2.89 2.89 0 0 0 1 3.91l6.92 4.17-2.87 4.92-6.93-4.16A8.66 8.66 0 0 1 7.59 4.57L10.26 0l4.85 2.92-2.67 4.57Z"
    fill="#000"
  />
  <path d="M26.88 16.12h2.51V6.57h3.63V4.4h-9.75v2.18h3.6v9.55Z" fill="#000" />
  <path
    d="M35.85 7.4h-.29c-1.51 0-2.2.68-2.52 1.2V7.47h-2.23v8.65h2.42v-4.3c0-1.6.73-2.27 2.15-2.27.22 0 .47.05.47.05V7.4ZM42.47 7.47v1.06c-.56-.8-1.56-1.25-2.82-1.25-2.6 0-4.1 2-4.1 4.52 0 2.5 1.5 4.52 4.1 4.52 1.26 0 2.26-.47 2.82-1.26v1.06h2.23V7.47h-2.23Zm-.12 4.33c0 1.4-.85 2.45-2.2 2.45-1.34 0-2.19-1.05-2.19-2.45 0-1.4.85-2.46 2.2-2.46 1.34 0 2.2 1.05 2.2 2.46ZM47.87 15.2a3.3 3.3 0 0 0 2.64 1.12c2.6 0 4.1-2.02 4.1-4.52 0-2.51-1.5-4.52-4.1-4.52-1.26 0-2.26.46-2.82 1.25V7.47h-2.24v11.57h2.42V15.2Zm-.07-3.4c0-1.4.86-2.46 2.2-2.46 1.35 0 2.2 1.05 2.2 2.46 0 1.4-.85 2.45-2.2 2.45-1.34 0-2.2-1.05-2.2-2.45ZM63.72 12.47s.04-.31.04-.7c0-2.55-1.8-4.5-4.43-4.5a4.35 4.35 0 0 0-4.48 4.51 4.33 4.33 0 0 0 4.5 4.54c2.06 0 3.7-1.2 4.22-2.96h-2.44c-.28.63-.98.94-1.72.94-1.2 0-1.99-.64-2.16-1.83h6.47Zm-4.4-3.31c1.12 0 1.85.66 2.02 1.63h-4.05c.2-.99.92-1.63 2.02-1.63Z"
    fill="#000"
  />
  <path d="M71.14 9.4V7.47H63.7V9.5h4.39l-4.46 4.69v1.93h7.58v-2.03h-4.55l4.48-4.69Z" fill="#000" />
  <path
    d="M79.97 12.47s.03-.31.03-.7c0-2.55-1.79-4.5-4.43-4.5a4.35 4.35 0 0 0-4.48 4.51 4.33 4.33 0 0 0 4.5 4.54c2.06 0 3.7-1.2 4.22-2.96h-2.43c-.3.63-.99.94-1.72.94-1.21 0-2-.64-2.17-1.83h6.48Zm-4.41-3.31c1.12 0 1.85.66 2.02 1.63h-4.05c.2-.99.92-1.63 2.03-1.63Z"
    fill="#000"
  />
</svg>
