<svg width="512" height="512" viewBox="0 0 512 512" fill="none" xmlns="http://www.w3.org/2000/svg">
<rect width="512" height="512" rx="256" fill="url(#paint0_linear_1934_819)"/>
<path opacity="0.88" fill-rule="evenodd" clip-rule="evenodd" d="M319.96 144.788L175.328 390.999L101.001 346.621L245.633 100.411L319.96 144.788Z" fill="white"/>
<mask id="mask0_1934_819" style="mask-type:alpha" maskUnits="userSpaceOnUse" x="101" y="100" width="219" height="291">
<path fill-rule="evenodd" clip-rule="evenodd" d="M319.96 144.788L175.328 390.999L101.001 346.621L245.633 100.411L319.96 144.788Z" fill="white"/>
</mask>
<g mask="url(#mask0_1934_819)">
<path opacity="0.4" d="M258.277 289.01L200.488 233.145L200.488 357.306L258.277 289.01Z" fill="#FF8B13"/>
</g>
<path fill-rule="evenodd" clip-rule="evenodd" d="M291.663 192.96C279.507 213.652 286.292 240.361 306.817 252.616L412.999 316.012L368.98 390.946L262.799 327.549C201.224 290.786 180.869 210.66 217.335 148.582L258.21 79.0012L332.537 123.379L291.663 192.96Z" fill="white"/>
<defs>
<linearGradient id="paint0_linear_1934_819" x1="256" y1="0" x2="256" y2="512" gradientUnits="userSpaceOnUse">
<stop stop-color="#FFA82A"/>
<stop offset="1" stop-color="#FF8A12"/>
</linearGradient>
</defs>
</svg>
